<svg xmlns="http://www.w3.org/2000/svg" xmlns:xlink="http://www.w3.org/1999/xlink" width="500" zoomAndPan="magnify" viewBox="0 0 375 135.000003" height="180" preserveAspectRatio="xMidYMid meet" version="1.0"><defs><g/><clipPath id="8a7e158c2c"><path d="M 5.246094 21.242188 L 78.953125 21.242188 L 78.953125 94.949219 L 5.246094 94.949219 Z M 5.246094 21.242188 " clip-rule="nonzero"/></clipPath><clipPath id="17070bb01b"><path d="M 65.441406 58.09375 C 65.441406 57.574219 65.113281 57.132812 64.660156 56.953125 L 62.96875 62.015625 L 62.550781 68.714844 C 64.273438 67.933594 65.441406 66.191406 65.441406 64.238281 Z M 59.628906 76.078125 L 59.925781 71.328125 L 50.464844 79.738281 L 44.214844 92.234375 C 45.535156 91.914062 46.777344 91.296875 47.828125 90.414062 L 55.671875 83.878906 C 58 81.941406 59.441406 79.097656 59.628906 76.078125 Z M 36.371094 90.414062 C 37.425781 91.296875 38.664062 91.914062 39.984375 92.234375 L 33.738281 79.738281 L 24.273438 71.328125 L 24.570312 76.078125 C 24.757812 79.097656 26.199219 81.941406 28.527344 83.878906 Z M 21.648438 68.714844 L 21.230469 62.015625 L 19.542969 56.953125 C 19.085938 57.132812 18.761719 57.574219 18.761719 58.09375 L 18.761719 64.238281 C 18.761719 66.191406 19.925781 67.933594 21.648438 68.714844 Z M 60.339844 64.710938 L 60.523438 61.804688 L 59.777344 54.359375 L 58.152344 58.148438 Z M 56.4375 71.144531 L 47.835938 72.707031 L 46.203125 75.972656 L 49.277344 77.507812 Z M 27.765625 71.144531 L 34.925781 77.507812 L 37.996094 75.972656 L 36.363281 72.707031 Z M 23.859375 64.710938 L 26.046875 58.148438 L 24.421875 54.359375 L 23.675781 61.804688 Z M 59.203125 48.597656 L 58.960938 46.183594 C 58.519531 41.769531 54.839844 38.441406 50.402344 38.441406 L 33.796875 38.441406 C 29.359375 38.441406 25.679688 41.769531 25.238281 46.183594 L 25 48.597656 L 32.445312 50.726562 L 51.753906 50.726562 Z M 58.378906 51.386719 L 52.570312 53.046875 L 51.207031 54.414062 C 51.242188 54.410156 51.277344 54.410156 51.3125 54.410156 C 53.113281 54.410156 54.816406 54.964844 56.113281 55.972656 L 56.339844 56.148438 Z M 58.914062 68.195312 L 56.222656 60.132812 L 56.113281 60.21875 C 54.816406 61.226562 53.113281 61.78125 51.3125 61.78125 C 49.839844 61.78125 48.429688 61.40625 47.257812 60.722656 L 48.117188 70.160156 Z M 45.027344 72.835938 L 39.175781 72.835938 L 40.558594 75.605469 L 42.101562 76.375 L 43.640625 75.605469 Z M 37.058594 79.1875 L 40.054688 81.433594 L 44.148438 81.433594 L 47.144531 79.1875 L 44.558594 77.894531 L 42.648438 78.847656 C 42.304688 79.019531 41.898438 79.019531 41.550781 78.847656 L 39.644531 77.894531 Z M 25.289062 68.195312 L 36.085938 70.160156 L 36.941406 60.722656 C 35.769531 61.40625 34.359375 61.78125 32.886719 61.78125 C 31.085938 61.78125 29.382812 61.226562 28.089844 60.21875 L 27.976562 60.132812 Z M 25.820312 51.386719 L 27.859375 56.148438 L 28.089844 55.972656 C 29.382812 54.964844 31.085938 54.410156 32.886719 54.410156 C 32.921875 54.410156 32.957031 54.410156 32.996094 54.414062 L 31.628906 53.046875 Z M 48.960938 53.183594 L 35.238281 53.183594 L 38.921875 56.867188 L 45.277344 56.867188 Z M 38.53125 70.378906 L 45.667969 70.378906 L 44.664062 59.324219 L 39.535156 59.324219 Z M 36.175781 57.910156 C 35.324219 57.246094 34.125 56.867188 32.886719 56.867188 C 31.648438 56.867188 30.449219 57.246094 29.597656 57.910156 L 29.359375 58.09375 L 29.597656 58.28125 C 30.449219 58.941406 31.648438 59.324219 32.886719 59.324219 C 34.125 59.324219 35.324219 58.941406 36.175781 58.28125 L 36.414062 58.09375 Z M 47.785156 58.09375 L 48.023438 58.28125 C 48.875 58.941406 50.074219 59.324219 51.3125 59.324219 C 52.550781 59.324219 53.75 58.941406 54.601562 58.28125 L 54.839844 58.09375 L 54.601562 57.910156 C 53.75 57.246094 52.550781 56.867188 51.3125 56.867188 C 50.074219 56.867188 48.875 57.246094 48.023438 57.910156 Z M 42.101562 90.972656 L 46.042969 83.082031 L 45.292969 83.644531 C 45.082031 83.804688 44.824219 83.890625 44.558594 83.890625 L 39.644531 83.890625 C 39.378906 83.890625 39.117188 83.804688 38.90625 83.644531 L 38.15625 83.082031 Z M 19.988281 45.8125 C 19.988281 48.9375 20.488281 52.03125 21.480469 54.996094 L 21.792969 55.941406 L 22.796875 45.941406 C 23.363281 40.265625 28.09375 35.984375 33.796875 35.984375 L 50.402344 35.984375 C 56.109375 35.984375 60.835938 40.265625 61.40625 45.941406 L 62.40625 55.941406 L 62.71875 54.996094 C 63.710938 52.03125 64.210938 48.9375 64.210938 45.8125 C 64.210938 33.621094 54.292969 23.699219 42.101562 23.699219 C 29.90625 23.699219 19.988281 33.621094 19.988281 45.8125 Z M 6.476562 94.949219 L 18.761719 94.949219 L 18.761719 92.492188 L 7.703125 92.492188 L 7.703125 81.433594 L 5.246094 81.433594 L 5.246094 93.71875 C 5.246094 94.398438 5.796875 94.949219 6.476562 94.949219 Z M 76.496094 92.492188 L 65.441406 92.492188 L 65.441406 94.949219 L 77.722656 94.949219 C 78.402344 94.949219 78.953125 94.398438 78.953125 93.71875 L 78.953125 81.433594 L 76.496094 81.433594 Z M 76.496094 34.753906 L 78.953125 34.753906 L 78.953125 22.472656 C 78.953125 21.792969 78.402344 21.242188 77.722656 21.242188 L 65.441406 21.242188 L 65.441406 23.699219 L 76.496094 23.699219 Z M 7.703125 34.753906 L 5.246094 34.753906 L 5.246094 22.472656 C 5.246094 21.792969 5.796875 21.242188 6.476562 21.242188 L 18.761719 21.242188 L 18.761719 23.699219 L 7.703125 23.699219 Z M 7.703125 34.753906 " clip-rule="nonzero"/></clipPath><clipPath id="72af0b14d1"><path d="M 65.441406 58.09375 C 65.441406 57.574219 65.113281 57.132812 64.660156 56.953125 L 62.96875 62.015625 L 62.550781 68.714844 C 64.273438 67.933594 65.441406 66.191406 65.441406 64.238281 Z M 59.628906 76.078125 L 59.925781 71.328125 L 50.464844 79.738281 L 44.214844 92.234375 C 45.535156 91.914062 46.777344 91.296875 47.828125 90.414062 L 55.671875 83.878906 C 58 81.941406 59.441406 79.097656 59.628906 76.078125 Z M 36.371094 90.414062 C 37.425781 91.296875 38.664062 91.914062 39.984375 92.234375 L 33.738281 79.738281 L 24.273438 71.328125 L 24.570312 76.078125 C 24.757812 79.097656 26.199219 81.941406 28.527344 83.878906 Z M 21.648438 68.714844 L 21.230469 62.015625 L 19.542969 56.953125 C 19.085938 57.132812 18.761719 57.574219 18.761719 58.09375 L 18.761719 64.238281 C 18.761719 66.191406 19.925781 67.933594 21.648438 68.714844 Z M 60.339844 64.710938 L 60.523438 61.804688 L 59.777344 54.359375 L 58.152344 58.148438 Z M 56.4375 71.144531 L 47.835938 72.707031 L 46.203125 75.972656 L 49.277344 77.507812 Z M 27.765625 71.144531 L 34.925781 77.507812 L 37.996094 75.972656 L 36.363281 72.707031 Z M 23.859375 64.710938 L 26.046875 58.148438 L 24.421875 54.359375 L 23.675781 61.804688 Z M 59.203125 48.597656 L 58.960938 46.183594 C 58.519531 41.769531 54.839844 38.441406 50.402344 38.441406 L 33.796875 38.441406 C 29.359375 38.441406 25.679688 41.769531 25.238281 46.183594 L 25 48.597656 L 32.445312 50.726562 L 51.753906 50.726562 Z M 58.378906 51.386719 L 52.570312 53.046875 L 51.207031 54.414062 C 51.242188 54.410156 51.277344 54.410156 51.3125 54.410156 C 53.113281 54.410156 54.816406 54.964844 56.113281 55.972656 L 56.339844 56.148438 Z M 58.914062 68.195312 L 56.222656 60.132812 L 56.113281 60.21875 C 54.816406 61.226562 53.113281 61.78125 51.3125 61.78125 C 49.839844 61.78125 48.429688 61.40625 47.257812 60.722656 L 48.117188 70.160156 Z M 45.027344 72.835938 L 39.175781 72.835938 L 40.558594 75.605469 L 42.101562 76.375 L 43.640625 75.605469 Z M 37.058594 79.1875 L 40.054688 81.433594 L 44.148438 81.433594 L 47.144531 79.1875 L 44.558594 77.894531 L 42.648438 78.847656 C 42.304688 79.019531 41.898438 79.019531 41.550781 78.847656 L 39.644531 77.894531 Z M 25.289062 68.195312 L 36.085938 70.160156 L 36.941406 60.722656 C 35.769531 61.40625 34.359375 61.78125 32.886719 61.78125 C 31.085938 61.78125 29.382812 61.226562 28.089844 60.21875 L 27.976562 60.132812 Z M 25.820312 51.386719 L 27.859375 56.148438 L 28.089844 55.972656 C 29.382812 54.964844 31.085938 54.410156 32.886719 54.410156 C 32.921875 54.410156 32.957031 54.410156 32.996094 54.414062 L 31.628906 53.046875 Z M 48.960938 53.183594 L 35.238281 53.183594 L 38.921875 56.867188 L 45.277344 56.867188 Z M 38.53125 70.378906 L 45.667969 70.378906 L 44.664062 59.324219 L 39.535156 59.324219 Z M 36.175781 57.910156 C 35.324219 57.246094 34.125 56.867188 32.886719 56.867188 C 31.648438 56.867188 30.449219 57.246094 29.597656 57.910156 L 29.359375 58.09375 L 29.597656 58.28125 C 30.449219 58.941406 31.648438 59.324219 32.886719 59.324219 C 34.125 59.324219 35.324219 58.941406 36.175781 58.28125 L 36.414062 58.09375 Z M 47.785156 58.09375 L 48.023438 58.28125 C 48.875 58.941406 50.074219 59.324219 51.3125 59.324219 C 52.550781 59.324219 53.75 58.941406 54.601562 58.28125 L 54.839844 58.09375 L 54.601562 57.910156 C 53.75 57.246094 52.550781 56.867188 51.3125 56.867188 C 50.074219 56.867188 48.875 57.246094 48.023438 57.910156 Z M 42.101562 90.972656 L 46.042969 83.082031 L 45.292969 83.644531 C 45.082031 83.804688 44.824219 83.890625 44.558594 83.890625 L 39.644531 83.890625 C 39.378906 83.890625 39.117188 83.804688 38.90625 83.644531 L 38.15625 83.082031 Z M 19.988281 45.8125 C 19.988281 48.9375 20.488281 52.03125 21.480469 54.996094 L 21.792969 55.941406 L 22.796875 45.941406 C 23.363281 40.265625 28.09375 35.984375 33.796875 35.984375 L 50.402344 35.984375 C 56.109375 35.984375 60.835938 40.265625 61.40625 45.941406 L 62.40625 55.941406 L 62.71875 54.996094 C 63.710938 52.03125 64.210938 48.9375 64.210938 45.8125 C 64.210938 33.621094 54.292969 23.699219 42.101562 23.699219 C 29.90625 23.699219 19.988281 33.621094 19.988281 45.8125 Z M 6.476562 94.949219 L 18.761719 94.949219 L 18.761719 92.492188 L 7.703125 92.492188 L 7.703125 81.433594 L 5.246094 81.433594 L 5.246094 93.71875 C 5.246094 94.398438 5.796875 94.949219 6.476562 94.949219 Z M 76.496094 92.492188 L 65.441406 92.492188 L 65.441406 94.949219 L 77.722656 94.949219 C 78.402344 94.949219 78.953125 94.398438 78.953125 93.71875 L 78.953125 81.433594 L 76.496094 81.433594 Z M 76.496094 34.753906 L 78.953125 34.753906 L 78.953125 22.472656 C 78.953125 21.792969 78.402344 21.242188 77.722656 21.242188 L 65.441406 21.242188 L 65.441406 23.699219 L 76.496094 23.699219 Z M 7.703125 34.753906 L 5.246094 34.753906 L 5.246094 22.472656 C 5.246094 21.792969 5.796875 21.242188 6.476562 21.242188 L 18.761719 21.242188 L 18.761719 23.699219 L 7.703125 23.699219 L 7.703125 34.753906 " clip-rule="nonzero"/></clipPath><linearGradient x1="0.0000000176202" gradientTransform="matrix(0, 73.704046, -73.704046, 0, 42.099922, 21.243406)" y1="0" x2="1" gradientUnits="userSpaceOnUse" y2="0" id="29c1592a5d"><stop stop-opacity="1" stop-color="rgb(98.799133%, 0%, 100%)" offset="0"/><stop stop-opacity="1" stop-color="rgb(98.408508%, 0.390625%, 100%)" offset="0.00390625"/><stop stop-opacity="1" stop-color="rgb(98.017883%, 0.78125%, 100%)" offset="0.0078125"/><stop stop-opacity="1" stop-color="rgb(97.671509%, 0.990295%, 99.81842%)" offset="0.0117187"/><stop stop-opacity="1" stop-color="rgb(97.32666%, 1.199341%, 99.636841%)" offset="0.015625"/><stop stop-opacity="1" stop-color="rgb(96.890259%, 1.620483%, 99.617004%)" offset="0.0195312"/><stop stop-opacity="1" stop-color="rgb(96.455383%, 2.043152%, 99.598694%)" offset="0.0234375"/><stop stop-opacity="1" stop-color="rgb(96.064758%, 2.383423%, 99.598694%)" offset="0.0273437"/><stop stop-opacity="1" stop-color="rgb(95.674133%, 2.723694%, 99.598694%)" offset="0.03125"/><stop stop-opacity="1" stop-color="rgb(95.283508%, 3.111267%, 99.598694%)" offset="0.0351562"/><stop stop-opacity="1" stop-color="rgb(94.892883%, 3.49884%, 99.598694%)" offset="0.0390625"/><stop stop-opacity="1" stop-color="rgb(94.502258%, 3.692627%, 99.404907%)" offset="0.0429687"/><stop stop-opacity="1" stop-color="rgb(94.111633%, 3.886414%, 99.211121%)" offset="0.046875"/><stop stop-opacity="1" stop-color="rgb(93.721008%, 4.277039%, 99.205017%)" offset="0.0507812"/><stop stop-opacity="1" stop-color="rgb(93.330383%, 4.667664%, 99.198914%)" offset="0.0546875"/><stop stop-opacity="1" stop-color="rgb(92.939758%, 5.058289%, 99.198914%)" offset="0.0585937"/><stop stop-opacity="1" stop-color="rgb(92.549133%, 5.448914%, 99.198914%)" offset="0.0625"/><stop stop-opacity="1" stop-color="rgb(92.158508%, 5.690002%, 99.198914%)" offset="0.0664062"/><stop stop-opacity="1" stop-color="rgb(91.767883%, 5.931091%, 99.198914%)" offset="0.0703125"/><stop stop-opacity="1" stop-color="rgb(91.377258%, 6.321716%, 98.999023%)" offset="0.0742187"/><stop stop-opacity="1" stop-color="rgb(90.986633%, 6.712341%, 98.799133%)" offset="0.078125"/><stop stop-opacity="1" stop-color="rgb(90.596008%, 7.102966%, 98.799133%)" offset="0.0820312"/><stop stop-opacity="1" stop-color="rgb(90.205383%, 7.493591%, 98.799133%)" offset="0.0859375"/><stop stop-opacity="1" stop-color="rgb(89.814758%, 7.833862%, 98.799133%)" offset="0.0898437"/><stop stop-opacity="1" stop-color="rgb(89.424133%, 8.174133%, 98.799133%)" offset="0.09375"/><stop stop-opacity="1" stop-color="rgb(89.033508%, 8.38623%, 98.799133%)" offset="0.0976562"/><stop stop-opacity="1" stop-color="rgb(88.642883%, 8.599854%, 98.799133%)" offset="0.101562"/><stop stop-opacity="1" stop-color="rgb(88.206482%, 9.017944%, 98.599243%)" offset="0.105469"/><stop stop-opacity="1" stop-color="rgb(87.771606%, 9.436035%, 98.399353%)" offset="0.109375"/><stop stop-opacity="1" stop-color="rgb(87.425232%, 9.82666%, 98.399353%)" offset="0.113281"/><stop stop-opacity="1" stop-color="rgb(87.080383%, 10.217285%, 98.399353%)" offset="0.117187"/><stop stop-opacity="1" stop-color="rgb(86.689758%, 10.60791%, 98.399353%)" offset="0.121094"/><stop stop-opacity="1" stop-color="rgb(86.299133%, 10.998535%, 98.399353%)" offset="0.125"/><stop stop-opacity="1" stop-color="rgb(85.908508%, 11.18927%, 98.399353%)" offset="0.128906"/><stop stop-opacity="1" stop-color="rgb(85.517883%, 11.380005%, 98.399353%)" offset="0.132812"/><stop stop-opacity="1" stop-color="rgb(85.127258%, 11.77063%, 98.199463%)" offset="0.136719"/><stop stop-opacity="1" stop-color="rgb(84.736633%, 12.161255%, 97.999573%)" offset="0.140625"/><stop stop-opacity="1" stop-color="rgb(84.295654%, 12.55188%, 97.999573%)" offset="0.144531"/><stop stop-opacity="1" stop-color="rgb(83.856201%, 12.942505%, 97.999573%)" offset="0.148437"/><stop stop-opacity="1" stop-color="rgb(83.465576%, 13.13324%, 97.999573%)" offset="0.152344"/><stop stop-opacity="1" stop-color="rgb(83.074951%, 13.323975%, 97.999573%)" offset="0.15625"/><stop stop-opacity="1" stop-color="rgb(82.733154%, 13.7146%, 97.996521%)" offset="0.160156"/><stop stop-opacity="1" stop-color="rgb(82.392883%, 14.105225%, 97.993469%)" offset="0.164062"/><stop stop-opacity="1" stop-color="rgb(82.002258%, 14.49585%, 97.796631%)" offset="0.167969"/><stop stop-opacity="1" stop-color="rgb(81.611633%, 14.886475%, 97.599792%)" offset="0.171875"/><stop stop-opacity="1" stop-color="rgb(81.221008%, 15.2771%, 97.599792%)" offset="0.175781"/><stop stop-opacity="1" stop-color="rgb(80.830383%, 15.667725%, 97.599792%)" offset="0.179687"/><stop stop-opacity="1" stop-color="rgb(80.439758%, 15.858459%, 97.599792%)" offset="0.183594"/><stop stop-opacity="1" stop-color="rgb(80.049133%, 16.049194%, 97.599792%)" offset="0.1875"/><stop stop-opacity="1" stop-color="rgb(79.808044%, 16.490173%, 97.587585%)" offset="0.191406"/><stop stop-opacity="1" stop-color="rgb(79.568481%, 16.931152%, 97.575378%)" offset="0.195312"/><stop stop-opacity="1" stop-color="rgb(79.177856%, 17.271423%, 97.436523%)" offset="0.199219"/><stop stop-opacity="1" stop-color="rgb(78.787231%, 17.611694%, 97.299194%)" offset="0.203125"/><stop stop-opacity="1" stop-color="rgb(78.396606%, 17.805481%, 97.299194%)" offset="0.207031"/><stop stop-opacity="1" stop-color="rgb(78.005981%, 17.999268%, 97.299194%)" offset="0.210937"/><stop stop-opacity="1" stop-color="rgb(77.661133%, 18.386841%, 97.299194%)" offset="0.214844"/><stop stop-opacity="1" stop-color="rgb(77.31781%, 18.774414%, 97.299194%)" offset="0.21875"/><stop stop-opacity="1" stop-color="rgb(76.930237%, 19.165039%, 97.120667%)" offset="0.222656"/><stop stop-opacity="1" stop-color="rgb(76.542664%, 19.555664%, 96.943665%)" offset="0.226562"/><stop stop-opacity="1" stop-color="rgb(76.101685%, 19.976807%, 96.920776%)" offset="0.230469"/><stop stop-opacity="1" stop-color="rgb(75.662231%, 20.399475%, 96.899414%)" offset="0.234375"/><stop stop-opacity="1" stop-color="rgb(75.271606%, 20.608521%, 96.899414%)" offset="0.238281"/><stop stop-opacity="1" stop-color="rgb(74.880981%, 20.817566%, 96.899414%)" offset="0.242187"/><stop stop-opacity="1" stop-color="rgb(74.490356%, 21.208191%, 96.899414%)" offset="0.246094"/><stop stop-opacity="1" stop-color="rgb(74.099731%, 21.598816%, 96.899414%)" offset="0.25"/><stop stop-opacity="1" stop-color="rgb(73.709106%, 21.989441%, 96.708679%)" offset="0.253906"/><stop stop-opacity="1" stop-color="rgb(73.318481%, 22.380066%, 96.517944%)" offset="0.257812"/><stop stop-opacity="1" stop-color="rgb(72.927856%, 22.538757%, 96.508789%)" offset="0.261719"/><stop stop-opacity="1" stop-color="rgb(72.537231%, 22.698975%, 96.499634%)" offset="0.265625"/><stop stop-opacity="1" stop-color="rgb(72.146606%, 23.120117%, 96.499634%)" offset="0.269531"/><stop stop-opacity="1" stop-color="rgb(71.755981%, 23.542786%, 96.499634%)" offset="0.273438"/><stop stop-opacity="1" stop-color="rgb(71.365356%, 23.933411%, 96.499634%)" offset="0.277344"/><stop stop-opacity="1" stop-color="rgb(70.974731%, 24.324036%, 96.499634%)" offset="0.28125"/><stop stop-opacity="1" stop-color="rgb(70.584106%, 24.714661%, 96.299744%)" offset="0.285156"/><stop stop-opacity="1" stop-color="rgb(70.193481%, 25.105286%, 96.099854%)" offset="0.289062"/><stop stop-opacity="1" stop-color="rgb(69.802856%, 25.302124%, 96.099854%)" offset="0.292969"/><stop stop-opacity="1" stop-color="rgb(69.412231%, 25.498962%, 96.099854%)" offset="0.296875"/><stop stop-opacity="1" stop-color="rgb(69.021606%, 25.883484%, 96.099854%)" offset="0.300781"/><stop stop-opacity="1" stop-color="rgb(68.630981%, 26.268005%, 96.099854%)" offset="0.304688"/><stop stop-opacity="1" stop-color="rgb(68.240356%, 26.65863%, 96.099854%)" offset="0.308594"/><stop stop-opacity="1" stop-color="rgb(67.849731%, 27.049255%, 96.099854%)" offset="0.3125"/><stop stop-opacity="1" stop-color="rgb(67.459106%, 27.424622%, 95.898438%)" offset="0.316406"/><stop stop-opacity="1" stop-color="rgb(67.068481%, 27.799988%, 95.698547%)" offset="0.320312"/><stop stop-opacity="1" stop-color="rgb(66.677856%, 28.005981%, 95.698547%)" offset="0.324219"/><stop stop-opacity="1" stop-color="rgb(66.287231%, 28.211975%, 95.698547%)" offset="0.328125"/><stop stop-opacity="1" stop-color="rgb(65.896606%, 28.6026%, 95.698547%)" offset="0.332031"/><stop stop-opacity="1" stop-color="rgb(65.505981%, 28.993225%, 95.698547%)" offset="0.335938"/><stop stop-opacity="1" stop-color="rgb(65.115356%, 29.38385%, 95.698547%)" offset="0.339844"/><stop stop-opacity="1" stop-color="rgb(64.724731%, 29.774475%, 95.698547%)" offset="0.34375"/><stop stop-opacity="1" stop-color="rgb(64.334106%, 29.986572%, 95.498657%)" offset="0.347656"/><stop stop-opacity="1" stop-color="rgb(63.943481%, 30.198669%, 95.298767%)" offset="0.351562"/><stop stop-opacity="1" stop-color="rgb(63.502502%, 30.61676%, 95.298767%)" offset="0.355469"/><stop stop-opacity="1" stop-color="rgb(63.061523%, 31.036377%, 95.298767%)" offset="0.359375"/><stop stop-opacity="1" stop-color="rgb(62.721252%, 31.427002%, 95.298767%)" offset="0.363281"/><stop stop-opacity="1" stop-color="rgb(62.380981%, 31.817627%, 95.298767%)" offset="0.367188"/><stop stop-opacity="1" stop-color="rgb(61.990356%, 32.157898%, 95.298767%)" offset="0.371094"/><stop stop-opacity="1" stop-color="rgb(61.599731%, 32.499695%, 95.298767%)" offset="0.375"/><stop stop-opacity="1" stop-color="rgb(61.209106%, 32.69043%, 95.098877%)" offset="0.378906"/><stop stop-opacity="1" stop-color="rgb(60.818481%, 32.881165%, 94.898987%)" offset="0.382812"/><stop stop-opacity="1" stop-color="rgb(60.427856%, 33.27179%, 94.898987%)" offset="0.386719"/><stop stop-opacity="1" stop-color="rgb(60.037231%, 33.662415%, 94.898987%)" offset="0.390625"/><stop stop-opacity="1" stop-color="rgb(59.596252%, 34.101868%, 94.898987%)" offset="0.394531"/><stop stop-opacity="1" stop-color="rgb(59.155273%, 34.542847%, 94.898987%)" offset="0.398438"/><stop stop-opacity="1" stop-color="rgb(58.764648%, 34.733582%, 94.88678%)" offset="0.402344"/><stop stop-opacity="1" stop-color="rgb(58.374023%, 34.924316%, 94.874573%)" offset="0.40625"/><stop stop-opacity="1" stop-color="rgb(57.983398%, 35.314941%, 94.68689%)" offset="0.410156"/><stop stop-opacity="1" stop-color="rgb(57.594299%, 35.705566%, 94.499207%)" offset="0.414062"/><stop stop-opacity="1" stop-color="rgb(57.252502%, 36.096191%, 94.499207%)" offset="0.417969"/><stop stop-opacity="1" stop-color="rgb(56.912231%, 36.486816%, 94.499207%)" offset="0.421875"/><stop stop-opacity="1" stop-color="rgb(56.521606%, 36.877441%, 94.499207%)" offset="0.425781"/><stop stop-opacity="1" stop-color="rgb(56.130981%, 37.268066%, 94.499207%)" offset="0.429688"/><stop stop-opacity="1" stop-color="rgb(55.740356%, 37.414551%, 94.32373%)" offset="0.433594"/><stop stop-opacity="1" stop-color="rgb(55.349731%, 37.561035%, 94.14978%)" offset="0.4375"/><stop stop-opacity="1" stop-color="rgb(54.908752%, 37.995911%, 94.12384%)" offset="0.441406"/><stop stop-opacity="1" stop-color="rgb(54.467773%, 38.430786%, 94.099426%)" offset="0.445312"/><stop stop-opacity="1" stop-color="rgb(54.077148%, 38.821411%, 94.099426%)" offset="0.449219"/><stop stop-opacity="1" stop-color="rgb(53.686523%, 39.212036%, 94.099426%)" offset="0.453125"/><stop stop-opacity="1" stop-color="rgb(53.295898%, 39.602661%, 94.099426%)" offset="0.457031"/><stop stop-opacity="1" stop-color="rgb(52.905273%, 39.993286%, 94.099426%)" offset="0.460938"/><stop stop-opacity="1" stop-color="rgb(52.561951%, 40.184021%, 93.911743%)" offset="0.464844"/><stop stop-opacity="1" stop-color="rgb(52.218628%, 40.374756%, 93.72406%)" offset="0.46875"/><stop stop-opacity="1" stop-color="rgb(51.831055%, 40.765381%, 93.711853%)" offset="0.472656"/><stop stop-opacity="1" stop-color="rgb(51.443481%, 41.156006%, 93.699646%)" offset="0.476562"/><stop stop-opacity="1" stop-color="rgb(51.002502%, 41.595459%, 93.699646%)" offset="0.480469"/><stop stop-opacity="1" stop-color="rgb(50.561523%, 42.036438%, 93.699646%)" offset="0.484375"/><stop stop-opacity="1" stop-color="rgb(50.170898%, 42.224121%, 93.699646%)" offset="0.488281"/><stop stop-opacity="1" stop-color="rgb(49.780273%, 42.41333%, 93.699646%)" offset="0.492188"/><stop stop-opacity="1" stop-color="rgb(49.389648%, 42.756653%, 93.499756%)" offset="0.496094"/><stop stop-opacity="1" stop-color="rgb(48.999023%, 43.099976%, 93.299866%)" offset="0.5"/><stop stop-opacity="1" stop-color="rgb(48.608398%, 43.490601%, 93.299866%)" offset="0.503906"/><stop stop-opacity="1" stop-color="rgb(48.217773%, 43.881226%, 93.299866%)" offset="0.507812"/><stop stop-opacity="1" stop-color="rgb(47.872925%, 44.271851%, 93.299866%)" offset="0.511719"/><stop stop-opacity="1" stop-color="rgb(47.528076%, 44.662476%, 93.299866%)" offset="0.515625"/><stop stop-opacity="1" stop-color="rgb(47.091675%, 44.902039%, 93.276978%)" offset="0.519531"/><stop stop-opacity="1" stop-color="rgb(46.655273%, 45.143127%, 93.255615%)" offset="0.523438"/><stop stop-opacity="1" stop-color="rgb(46.264648%, 45.533752%, 93.077087%)" offset="0.527344"/><stop stop-opacity="1" stop-color="rgb(45.874023%, 45.924377%, 92.89856%)" offset="0.53125"/><stop stop-opacity="1" stop-color="rgb(45.483398%, 46.315002%, 92.89856%)" offset="0.535156"/><stop stop-opacity="1" stop-color="rgb(45.092773%, 46.705627%, 92.89856%)" offset="0.539063"/><stop stop-opacity="1" stop-color="rgb(44.702148%, 46.902466%, 92.89856%)" offset="0.542969"/><stop stop-opacity="1" stop-color="rgb(44.311523%, 47.099304%, 92.89856%)" offset="0.546875"/><stop stop-opacity="1" stop-color="rgb(43.920898%, 47.436523%, 92.89856%)" offset="0.550781"/><stop stop-opacity="1" stop-color="rgb(43.530273%, 47.775269%, 92.89856%)" offset="0.554688"/><stop stop-opacity="1" stop-color="rgb(43.139648%, 48.161316%, 92.698669%)" offset="0.558594"/><stop stop-opacity="1" stop-color="rgb(42.749023%, 48.548889%, 92.498779%)" offset="0.5625"/><stop stop-opacity="1" stop-color="rgb(42.358398%, 48.973083%, 92.498779%)" offset="0.566406"/><stop stop-opacity="1" stop-color="rgb(41.967773%, 49.398804%, 92.498779%)" offset="0.570313"/><stop stop-opacity="1" stop-color="rgb(41.577148%, 49.604797%, 92.498779%)" offset="0.574219"/><stop stop-opacity="1" stop-color="rgb(41.186523%, 49.812317%, 92.498779%)" offset="0.578125"/><stop stop-opacity="1" stop-color="rgb(40.992737%, 50.202942%, 92.498779%)" offset="0.582031"/><stop stop-opacity="1" stop-color="rgb(40.79895%, 50.593567%, 92.498779%)" offset="0.585938"/><stop stop-opacity="1" stop-color="rgb(40.411377%, 50.984192%, 92.349243%)" offset="0.589844"/><stop stop-opacity="1" stop-color="rgb(40.023804%, 51.374817%, 92.199707%)" offset="0.59375"/><stop stop-opacity="1" stop-color="rgb(39.633179%, 51.586914%, 92.199707%)" offset="0.597656"/><stop stop-opacity="1" stop-color="rgb(39.242554%, 51.799011%, 92.199707%)" offset="0.601563"/><stop stop-opacity="1" stop-color="rgb(38.801575%, 52.166748%, 92.199707%)" offset="0.605469"/><stop stop-opacity="1" stop-color="rgb(38.362122%, 52.536011%, 92.199707%)" offset="0.609375"/><stop stop-opacity="1" stop-color="rgb(37.973022%, 52.926636%, 92.189026%)" offset="0.613281"/><stop stop-opacity="1" stop-color="rgb(37.585449%, 53.317261%, 92.179871%)" offset="0.617188"/><stop stop-opacity="1" stop-color="rgb(37.242126%, 53.707886%, 91.989136%)" offset="0.621094"/><stop stop-opacity="1" stop-color="rgb(36.898804%, 54.098511%, 91.799927%)" offset="0.625"/><stop stop-opacity="1" stop-color="rgb(36.508179%, 54.298401%, 91.799927%)" offset="0.628906"/><stop stop-opacity="1" stop-color="rgb(36.117554%, 54.499817%, 91.799927%)" offset="0.632813"/><stop stop-opacity="1" stop-color="rgb(35.726929%, 54.879761%, 91.799927%)" offset="0.636719"/><stop stop-opacity="1" stop-color="rgb(35.336304%, 55.26123%, 91.799927%)" offset="0.640625"/><stop stop-opacity="1" stop-color="rgb(34.895325%, 55.702209%, 91.598511%)" offset="0.644531"/><stop stop-opacity="1" stop-color="rgb(34.455872%, 56.143188%, 91.398621%)" offset="0.648438"/><stop stop-opacity="1" stop-color="rgb(34.065247%, 56.520081%, 91.398621%)" offset="0.652344"/><stop stop-opacity="1" stop-color="rgb(33.674622%, 56.898499%, 91.398621%)" offset="0.65625"/><stop stop-opacity="1" stop-color="rgb(33.283997%, 57.10144%, 91.398621%)" offset="0.660156"/><stop stop-opacity="1" stop-color="rgb(32.893372%, 57.304382%, 91.398621%)" offset="0.664063"/><stop stop-opacity="1" stop-color="rgb(32.550049%, 57.644653%, 91.398621%)" offset="0.667969"/><stop stop-opacity="1" stop-color="rgb(32.208252%, 57.98645%, 91.398621%)" offset="0.671875"/><stop stop-opacity="1" stop-color="rgb(31.819153%, 58.377075%, 91.213989%)" offset="0.675781"/><stop stop-opacity="1" stop-color="rgb(31.430054%, 58.7677%, 91.030884%)" offset="0.679688"/><stop stop-opacity="1" stop-color="rgb(31.039429%, 58.982849%, 91.014099%)" offset="0.683594"/><stop stop-opacity="1" stop-color="rgb(30.648804%, 59.199524%, 90.99884%)" offset="0.6875"/><stop stop-opacity="1" stop-color="rgb(30.207825%, 59.614563%, 90.99884%)" offset="0.691406"/><stop stop-opacity="1" stop-color="rgb(29.768372%, 60.031128%, 90.99884%)" offset="0.695313"/><stop stop-opacity="1" stop-color="rgb(29.377747%, 60.421753%, 90.99884%)" offset="0.699219"/><stop stop-opacity="1" stop-color="rgb(28.987122%, 60.812378%, 90.99884%)" offset="0.703125"/><stop stop-opacity="1" stop-color="rgb(28.596497%, 61.203003%, 90.802002%)" offset="0.707031"/><stop stop-opacity="1" stop-color="rgb(28.205872%, 61.593628%, 90.605164%)" offset="0.710938"/><stop stop-opacity="1" stop-color="rgb(27.861023%, 61.782837%, 90.602112%)" offset="0.714844"/><stop stop-opacity="1" stop-color="rgb(27.5177%, 61.973572%, 90.59906%)" offset="0.71875"/><stop stop-opacity="1" stop-color="rgb(27.130127%, 62.319946%, 90.59906%)" offset="0.722656"/><stop stop-opacity="1" stop-color="rgb(26.742554%, 62.666321%, 90.59906%)" offset="0.726563"/><stop stop-opacity="1" stop-color="rgb(26.301575%, 63.101196%, 90.58075%)" offset="0.730469"/><stop stop-opacity="1" stop-color="rgb(25.862122%, 63.536072%, 90.562439%)" offset="0.734375"/><stop stop-opacity="1" stop-color="rgb(25.471497%, 63.726807%, 90.380859%)" offset="0.738281"/><stop stop-opacity="1" stop-color="rgb(25.080872%, 63.917542%, 90.19928%)" offset="0.742188"/><stop stop-opacity="1" stop-color="rgb(24.690247%, 64.308167%, 90.19928%)" offset="0.746094"/><stop stop-opacity="1" stop-color="rgb(24.299622%, 64.698792%, 90.19928%)" offset="0.75"/><stop stop-opacity="1" stop-color="rgb(23.908997%, 65.089417%, 90.19928%)" offset="0.753906"/><stop stop-opacity="1" stop-color="rgb(23.518372%, 65.480042%, 90.19928%)" offset="0.757813"/><stop stop-opacity="1" stop-color="rgb(23.127747%, 65.870667%, 90.19928%)" offset="0.761719"/><stop stop-opacity="1" stop-color="rgb(22.737122%, 66.261292%, 90.19928%)" offset="0.765625"/><stop stop-opacity="1" stop-color="rgb(22.346497%, 66.50238%, 89.99939%)" offset="0.769531"/><stop stop-opacity="1" stop-color="rgb(21.955872%, 66.743469%, 89.7995%)" offset="0.773438"/><stop stop-opacity="1" stop-color="rgb(21.565247%, 67.131042%, 89.7995%)" offset="0.777344"/><stop stop-opacity="1" stop-color="rgb(21.174622%, 67.518616%, 89.7995%)" offset="0.78125"/><stop stop-opacity="1" stop-color="rgb(20.783997%, 67.861938%, 89.7995%)" offset="0.785156"/><stop stop-opacity="1" stop-color="rgb(20.393372%, 68.205261%, 89.7995%)" offset="0.789063"/><stop stop-opacity="1" stop-color="rgb(20.002747%, 68.4021%, 89.7995%)" offset="0.792969"/><stop stop-opacity="1" stop-color="rgb(19.612122%, 68.598938%, 89.7995%)" offset="0.796875"/><stop stop-opacity="1" stop-color="rgb(19.221497%, 68.983459%, 89.599609%)" offset="0.800781"/><stop stop-opacity="1" stop-color="rgb(18.830872%, 69.367981%, 89.399719%)" offset="0.804688"/><stop stop-opacity="1" stop-color="rgb(18.440247%, 69.758606%, 89.399719%)" offset="0.808594"/><stop stop-opacity="1" stop-color="rgb(18.049622%, 70.149231%, 89.399719%)" offset="0.8125"/><stop stop-opacity="1" stop-color="rgb(17.658997%, 70.59021%, 89.399719%)" offset="0.816406"/><stop stop-opacity="1" stop-color="rgb(17.268372%, 71.031189%, 89.399719%)" offset="0.820313"/><stop stop-opacity="1" stop-color="rgb(16.877747%, 71.220398%, 89.39209%)" offset="0.824219"/><stop stop-opacity="1" stop-color="rgb(16.487122%, 71.411133%, 89.385986%)" offset="0.828125"/><stop stop-opacity="1" stop-color="rgb(16.096497%, 71.801758%, 89.1922%)" offset="0.832031"/><stop stop-opacity="1" stop-color="rgb(15.705872%, 72.192383%, 88.999939%)" offset="0.835938"/><stop stop-opacity="1" stop-color="rgb(15.315247%, 72.532654%, 88.999939%)" offset="0.839844"/><stop stop-opacity="1" stop-color="rgb(14.924622%, 72.874451%, 88.999939%)" offset="0.84375"/><stop stop-opacity="1" stop-color="rgb(14.533997%, 73.265076%, 88.999939%)" offset="0.847656"/><stop stop-opacity="1" stop-color="rgb(14.143372%, 73.655701%, 88.999939%)" offset="0.851563"/><stop stop-opacity="1" stop-color="rgb(13.702393%, 73.895264%, 88.798523%)" offset="0.855469"/><stop stop-opacity="1" stop-color="rgb(13.261414%, 74.136353%, 88.598633%)" offset="0.859375"/><stop stop-opacity="1" stop-color="rgb(12.872314%, 74.526978%, 88.598633%)" offset="0.863281"/><stop stop-opacity="1" stop-color="rgb(12.484741%, 74.917603%, 88.598633%)" offset="0.867188"/><stop stop-opacity="1" stop-color="rgb(12.141418%, 75.308228%, 88.598633%)" offset="0.871094"/><stop stop-opacity="1" stop-color="rgb(11.799622%, 75.698853%, 88.598633%)" offset="0.875"/><stop stop-opacity="1" stop-color="rgb(11.408997%, 75.898743%, 88.598633%)" offset="0.878906"/><stop stop-opacity="1" stop-color="rgb(11.018372%, 76.098633%, 88.598633%)" offset="0.882813"/><stop stop-opacity="1" stop-color="rgb(10.627747%, 76.480103%, 88.417053%)" offset="0.886719"/><stop stop-opacity="1" stop-color="rgb(10.237122%, 76.861572%, 88.237%)" offset="0.890625"/><stop stop-opacity="1" stop-color="rgb(9.796143%, 77.252197%, 88.217163%)" offset="0.894531"/><stop stop-opacity="1" stop-color="rgb(9.355164%, 77.642822%, 88.198853%)" offset="0.898438"/><stop stop-opacity="1" stop-color="rgb(8.964539%, 78.02124%, 88.198853%)" offset="0.902344"/><stop stop-opacity="1" stop-color="rgb(8.573914%, 78.399658%, 88.198853%)" offset="0.90625"/><stop stop-opacity="1" stop-color="rgb(8.183289%, 78.6026%, 88.198853%)" offset="0.910156"/><stop stop-opacity="1" stop-color="rgb(7.794189%, 78.805542%, 88.198853%)" offset="0.914063"/><stop stop-opacity="1" stop-color="rgb(7.452393%, 79.196167%, 88.005066%)" offset="0.917969"/><stop stop-opacity="1" stop-color="rgb(7.112122%, 79.586792%, 87.811279%)" offset="0.921875"/><stop stop-opacity="1" stop-color="rgb(6.721497%, 79.977417%, 87.805176%)" offset="0.925781"/><stop stop-opacity="1" stop-color="rgb(6.330872%, 80.368042%, 87.799072%)" offset="0.929688"/><stop stop-opacity="1" stop-color="rgb(5.940247%, 80.583191%, 87.799072%)" offset="0.933594"/><stop stop-opacity="1" stop-color="rgb(5.549622%, 80.799866%, 87.799072%)" offset="0.9375"/><stop stop-opacity="1" stop-color="rgb(5.108643%, 81.214905%, 87.786865%)" offset="0.941406"/><stop stop-opacity="1" stop-color="rgb(4.667664%, 81.629944%, 87.776184%)" offset="0.945313"/><stop stop-opacity="1" stop-color="rgb(4.277039%, 82.019043%, 87.637329%)" offset="0.949219"/><stop stop-opacity="1" stop-color="rgb(3.886414%, 82.408142%, 87.5%)" offset="0.953125"/><stop stop-opacity="1" stop-color="rgb(3.495789%, 82.749939%, 87.5%)" offset="0.957031"/><stop stop-opacity="1" stop-color="rgb(3.105164%, 83.093262%, 87.5%)" offset="0.960938"/><stop stop-opacity="1" stop-color="rgb(2.761841%, 83.283997%, 87.5%)" offset="0.964844"/><stop stop-opacity="1" stop-color="rgb(2.418518%, 83.474731%, 87.5%)" offset="0.96875"/><stop stop-opacity="1" stop-color="rgb(2.230835%, 83.865356%, 87.5%)" offset="0.972656"/><stop stop-opacity="1" stop-color="rgb(2.043152%, 84.255981%, 87.5%)" offset="0.976563"/><stop stop-opacity="1" stop-color="rgb(1.602173%, 84.695435%, 87.298584%)" offset="0.980469"/><stop stop-opacity="1" stop-color="rgb(1.161194%, 85.136414%, 87.098694%)" offset="0.984375"/><stop stop-opacity="1" stop-color="rgb(0.775146%, 85.517883%, 87.098694%)" offset="0.988281"/><stop stop-opacity="1" stop-color="rgb(0.390625%, 85.899353%, 87.098694%)" offset="0.992188"/><stop stop-opacity="1" stop-color="rgb(0.195312%, 85.899353%, 87.098694%)" offset="1"/></linearGradient></defs><g clip-path="url(#8a7e158c2c)"><g clip-path="url(#17070bb01b)"><g clip-path="url(#72af0b14d1)"><path fill="url(#29c1592a5d)" d="M 78.953125 21.242188 L 5.246094 21.242188 L 5.246094 94.949219 L 78.953125 94.949219 Z M 78.953125 21.242188 " fill-rule="nonzero"/></g></g></g><g fill="#000000" fill-opacity="1"><g transform="translate(93.776229, 89.368853)"><g><path d="M 27.480469 1.035156 C 41.222656 1.035156 49.171875 -6.652344 49.171875 -16.679688 C 49.171875 -28.257812 40.789062 -32.320312 27.222656 -35 C 16.417969 -37.074219 9.9375 -39.058594 9.9375 -47.269531 C 9.9375 -53.925781 15.988281 -57.898438 24.714844 -57.898438 C 35 -57.898438 40.355469 -52.714844 41.222656 -44.675781 L 47.183594 -44.675781 C 46.492188 -56.257812 37.503906 -62.824219 24.714844 -62.824219 C 12.960938 -62.824219 3.976562 -57.726562 3.976562 -47.011719 C 3.976562 -36.554688 11.578125 -32.492188 23.160156 -30.246094 C 36.035156 -27.824219 43.207031 -25.40625 43.207031 -16.332031 C 43.121094 -9.59375 37.9375 -3.976562 27.480469 -3.976562 C 16.074219 -3.976562 8.296875 -9.417969 7.691406 -19.960938 L 1.726562 -19.960938 C 2.332031 -5.960938 13.308594 1.035156 27.480469 1.035156 Z M 27.480469 1.035156 "/></g></g></g><g fill="#000000" fill-opacity="1"><g transform="translate(145.711592, 89.368853)"><g><path d="M 16.851562 0.433594 C 19.183594 0.433594 20.652344 0.171875 22.46875 -0.257812 L 22.46875 -4.492188 C 13.742188 -2.9375 13.222656 -6.828125 13.222656 -12.53125 L 13.222656 -40.097656 L 22.46875 -40.097656 L 22.46875 -44.417969 L 13.222656 -44.417969 L 13.222656 -58.246094 L 7.777344 -58.246094 L 7.777344 -44.417969 L 1.382812 -44.417969 L 1.382812 -40.097656 L 7.777344 -40.097656 L 7.777344 -11.753906 C 7.777344 -2.507812 11.148438 0.433594 16.851562 0.433594 Z M 16.851562 0.433594 "/></g></g></g><g fill="#000000" fill-opacity="1"><g transform="translate(170.512673, 89.368853)"><g><path d="M 23.074219 1.035156 C 33.789062 1.035156 39.925781 -5.011719 41.910156 -13.308594 L 36.554688 -13.308594 C 35.515625 -9.246094 31.886719 -3.199219 22.988281 -3.199219 C 13.742188 -3.199219 7.433594 -9.9375 7.433594 -21.519531 L 42.515625 -21.519531 C 42.515625 -35.257812 36.207031 -45.195312 22.8125 -45.195312 C 10.285156 -45.195312 2.074219 -36.296875 2.074219 -22.035156 C 2.074219 -8.210938 10.109375 1.035156 23.074219 1.035156 Z M 7.433594 -25.234375 C 7.605469 -33.875 13.222656 -41.132812 22.8125 -41.132812 C 32.492188 -41.132812 37.160156 -33.441406 37.160156 -25.234375 Z M 7.433594 -25.234375 "/></g></g></g><g fill="#000000" fill-opacity="1"><g transform="translate(214.92994, 89.368853)"><g><path d="M 16.765625 0 L 22.640625 0 L 39.234375 -44.417969 L 33.703125 -44.417969 L 19.789062 -6.480469 L 19.617188 -6.480469 L 5.703125 -44.417969 L 0.257812 -44.417969 Z M 16.765625 0 "/></g></g></g><g fill="#000000" fill-opacity="1"><g transform="translate(254.421552, 89.368853)"><g><path d="M 23.074219 1.035156 C 33.789062 1.035156 39.925781 -5.011719 41.910156 -13.308594 L 36.554688 -13.308594 C 35.515625 -9.246094 31.886719 -3.199219 22.988281 -3.199219 C 13.742188 -3.199219 7.433594 -9.9375 7.433594 -21.519531 L 42.515625 -21.519531 C 42.515625 -35.257812 36.207031 -45.195312 22.8125 -45.195312 C 10.285156 -45.195312 2.074219 -36.296875 2.074219 -22.035156 C 2.074219 -8.210938 10.109375 1.035156 23.074219 1.035156 Z M 7.433594 -25.234375 C 7.605469 -33.875 13.222656 -41.132812 22.8125 -41.132812 C 32.492188 -41.132812 37.160156 -33.441406 37.160156 -25.234375 Z M 7.433594 -25.234375 "/></g></g></g><g fill="#000000" fill-opacity="1"><g transform="translate(298.838819, 89.368853)"><g><path d="M 0.519531 0 L 6.480469 0 L 13.566406 -19.011719 L 40.617188 -19.011719 L 47.703125 0 L 53.664062 0 L 30.246094 -61.789062 L 23.851562 -61.789062 Z M 15.121094 -23.765625 L 26.960938 -55.824219 L 27.136719 -55.824219 L 39.058594 -23.765625 Z M 15.121094 -23.765625 "/></g></g></g><g fill="#000000" fill-opacity="1"><g transform="translate(353.020963, 89.368853)"><g><path d="M 5.53125 0 L 11.492188 0 L 11.492188 -61.789062 L 5.53125 -61.789062 Z M 5.53125 0 "/></g></g></g></svg>